<?xml version="1.0"?>
<svg height="297mm" width="210mm" xmlns="http://www.w3.org/2000/svg">
    <path d="M 473,76 C 472,76 472,76 472,76 C 439,77 417,111 359,112 C 305,113 276,80 236,87 C 217,90 211,99 210,122 C 207,122 205,122 202,122 C 177,122 161,151 169,175 C 149,194 129,215 112,236 C 136,268 174,288 215,287 C 216,313 218,334 215,349 C 213,368 217,383 233,385 C 234,402 232,414 224,422 C 211,434 200,445 192,453 C 184,462 182,471 192,487 C 193,489 194,491 195,493 C 178,508 169,532 169,547 C 170,558 178,569 193,574 C 191,589 191,603 198,614 C 207,626 219,634 247,634 C 251,634 255,634 259,635 C 240,716 219,804 219,804 C 219,804 507,756 508,744 C 508,736 499,654 501,631 C 503,607 508,581 492,581 C 492,581 492,581 492,581 C 491,581 491,581 490,581 C 498,564 507,554 524,533 C 556,494 561,457 547,417 C 546,414 545,412 544,410 C 565,275 509,82 484,77 C 481,76 477,76 473,76 C 473,76 473,76 473,76 C 473,76 473,76 473,76 C 473,76 473,76 473,76 z M 206,138 C 206,138 206,138 206,138 C 206,138 206,138 206,138 C 206,138 206,138 206,138 C 206,138 206,138 206,138 C 209,138 212,138 215,140 C 233,150 223,172 208,182 C 210,210 213,233 215,261 C 185,263 158,253 137,232 C 150,218 175,192 189,179 C 181,160 192,139 206,138 z M 495,142 C 495,142 495,142 495,142 C 495,142 495,142 495,142 C 495,142 495,142 495,142 C 496,143 502,164 510,191 C 489,212 394,227 331,212 C 317,247 290,290 235,289 C 235,289 234,257 235,239 C 247,234 284,215 302,157 C 336,167 416,180 495,142 z M 359,363 C 365,363 372,363 379,363 C 372,386 361,422 349,448 C 330,491 309,521 309,521 C 309,521 323,536 340,536 C 358,536 375,526 375,526 C 375,526 384,542 397,548 C 404,551 416,550 428,544 L 471,573 C 469,577 468,580 466,584 C 429,589 360,600 300,613 C 305,594 310,574 309,569 C 258,614 248,611 228,609 C 209,608 209,596 211,584 C 211,582 212,579 213,576 C 235,575 267,569 285,546 C 269,541 269,532 271,514 C 274,497 259,480 228,480 C 226,480 224,480 222,481 C 219,481 216,481 214,482 C 209,473 208,468 216,458 C 224,449 237,437 246,425 C 251,432 257,439 260,441 C 266,445 305,432 309,430 C 314,428 316,419 316,419 L 254,388 C 254,386 254,384 254,381 C 276,375 313,363 359,363 z M 397,365 C 399,365 401,366 403,366 C 462,376 509,413 527,430 C 535,451 537,469 524,496 C 512,521 496,533 482,553 L 446,531 C 453,525 459,518 465,510 C 483,486 489,436 465,425 C 445,416 419,423 419,428 C 418,437 417,454 403,475 C 389,496 365,520 333,514 C 359,474 386,405 397,365 z M 440,447 C 440,447 440,447 440,447 C 441,447 441,447 441,447 C 453,446 469,454 465,475 C 458,506 419,536 401,526 C 391,520 401,501 412,486 C 423,472 428,455 429,452 C 430,449 434,447 440,447 z M 226,500 C 226,500 226,500 226,500 C 227,500 227,500 227,500 C 227,500 227,500 227,500 C 228,500 228,500 228,500 C 228,500 229,500 229,500 C 229,500 230,500 230,500 C 237,500 244,501 248,506 C 249,518 246,531 251,542 C 237,549 219,554 202,551 C 197,551 191,547 191,541 C 194,523 206,503 225,500 C 226,500 226,500 226,500 z M 400,642 C 400,642 400,642 400,642 C 400,642 400,642 400,642 C 400,642 400,642 400,642 C 400,642 400,642 400,642 C 400,642 400,642 400,642 C 400,642 400,642 400,642 C 400,642 400,642 400,642 C 400,642 400,642 400,642 C 400,642 400,642 400,642 C 400,642 401,642 401,642 C 407,642 417,655 413,675 C 408,695 399,703 391,705 C 382,707 264,733 260,730 C 256,727 269,668 275,666 C 281,665 386,643 400,642 z M 364,658 C 353,659 345,668 345,678 C 345,690 354,699 366,699 C 377,699 386,690 386,678 C 386,667 377,658 366,658 C 366,658 366,658 365,658 C 365,658 365,658 365,658 C 365,658 365,658 365,658 C 364,658 364,658 364,658 C 364,658 364,658 364,658 C 364,658 364,658 364,658 C 364,658 364,658 364,658 z" style="opacity:1;fill:#000000;fill-opacity:1;fill-rule:evenodd;stroke:#000000;stroke-width:1px;stroke-linecap:butt;stroke-linejoin:miter;stroke-opacity:1"/>
</svg>