<?xml version="1.0"?>
<svg height="297mm" width="210mm" xmlns="http://www.w3.org/2000/svg">
    <path d="M 556,106 C 556,106 555,106 554,106 C 538,107 525,115 514,128 C 480,118 445,113 413,113 C 412,113 412,113 411,113 C 411,113 410,113 410,113 C 410,113 409,113 409,113 C 409,113 409,113 408,113 C 408,113 408,113 407,113 C 334,114 271,140 243,182 C 190,259 219,314 254,330 C 275,340 327,335 360,302 C 361,314 358,329 351,345 C 333,355 318,366 307,375 C 284,396 267,421 246,445 C 245,444 243,443 242,443 C 226,433 209,443 204,460 C 201,470 202,479 207,485 C 175,511 149,512 148,519 C 147,527 157,553 200,563 C 206,564 213,565 220,565 C 204,577 184,595 184,605 C 184,610 188,619 194,629 C 183,637 172,650 172,661 C 172,673 182,688 196,694 C 185,713 179,723 178,729 C 177,737 203,822 201,901 C 297,885 420,865 509,857 C 504,793 519,743 527,722 C 568,723 627,707 646,666 C 583,642 590,580 642,501 C 684,436 719,311 655,220 C 659,216 662,212 665,209 C 687,177 681,160 660,138 C 637,115 602,106 559,106 C 559,106 558,106 558,106 C 558,106 557,106 557,106 C 557,106 557,106 557,106 C 557,106 557,106 557,106 C 556,106 556,106 556,106 z M 564,128 C 564,128 564,128 564,128 C 564,128 564,128 564,128 C 564,128 564,128 564,128 C 564,128 564,128 564,128 C 564,128 565,128 565,128 C 603,127 666,146 653,183 C 649,195 622,230 614,239 C 572,287 553,295 509,339 C 489,356 488,385 475,407 C 470,420 449,421 443,409 C 438,394 448,379 459,370 C 472,363 476,343 478,329 C 490,274 496,221 515,168 C 521,149 533,131 554,128 C 557,128 560,128 564,128 C 564,128 564,128 564,128 z M 425,190 C 425,190 425,190 425,190 C 425,190 425,190 426,190 C 426,190 426,190 426,190 C 426,190 427,190 427,190 C 427,190 427,190 427,190 C 427,190 428,190 428,190 C 428,190 429,190 430,190 C 442,190 464,195 486,202 C 484,214 482,227 480,241 C 473,280 469,306 465,323 C 434,318 403,324 375,335 C 382,317 390,270 384,247 C 318,270 329,233 343,218 C 352,208 380,191 425,190 z M 600,278 C 616,301 628,333 630,378 C 632,432 606,487 590,531 C 590,519 589,507 589,495 C 586,417 568,373 527,346 C 544,330 573,304 600,278 z M 442,343 C 442,343 442,343 442,343 C 442,343 442,343 442,343 C 442,343 442,343 442,343 C 442,343 442,343 442,343 C 442,343 442,343 442,343 C 442,343 442,343 442,343 C 442,343 443,343 443,343 C 443,343 443,343 443,343 C 449,343 455,344 460,345 C 455,354 430,360 424,398 C 419,426 452,444 475,433 C 491,425 502,390 509,371 C 524,386 535,405 534,425 C 534,480 516,513 504,569 C 495,609 524,665 604,679 C 578,700 553,708 521,700 C 463,685 449,624 438,597 C 426,565 395,542 362,535 C 323,524 282,534 243,540 C 221,544 195,545 178,529 C 188,523 202,514 211,506 C 216,502 221,498 225,494 C 225,494 225,494 225,494 C 227,494 229,494 232,493 C 257,489 298,490 332,496 C 374,504 395,508 419,525 C 443,542 489,540 487,499 C 485,457 456,449 429,457 C 402,465 378,472 334,467 C 305,464 280,458 263,452 C 284,426 305,400 336,376 C 369,351 418,343 442,343 C 442,343 442,343 442,343 C 442,343 442,343 442,343 C 442,343 442,343 442,343 z M 358,557 C 365,558 372,561 379,564 C 390,569 398,576 405,584 L 346,677 C 289,698 291,670 282,642 C 274,618 240,615 220,618 C 217,611 215,605 215,603 C 216,597 244,574 264,559 C 264,559 264,559 264,559 C 267,558 271,557 274,557 L 279,583 L 358,557 z M 427,672 C 441,688 461,709 471,720 C 414,726 290,746 246,758 C 228,762 213,756 203,746 C 194,737 205,723 225,695 C 235,693 242,693 246,709 C 251,729 299,750 342,692 L 427,672 z M 493,736 C 493,736 493,736 493,736 C 494,736 494,736 494,736 C 496,736 497,736 498,736 C 497,753 491,770 491,770 C 491,770 325,796 300,802 C 276,808 277,818 263,873 L 222,879 C 217,854 243,792 256,777 C 268,762 420,737 493,736 z" style="fill:#000000;fill-opacity:1;fill-rule:evenodd;stroke:#000000;stroke-width:1px;stroke-linecap:butt;stroke-linejoin:miter;stroke-opacity:1"/>
</svg>