<?xml version="1.0"?>
<svg height="297mm" width="210mm" xmlns="http://www.w3.org/2000/svg">
    <path d="M 426,149 C 426,149 426,149 426,149 C 426,149 426,149 426,149 C 373,150 322,179 298,212 C 282,234 275,279 291,330 L 237,407 C 230,391 209,381 185,383 C 157,386 136,406 138,427 C 139,437 145,445 153,451 L 169,658 C 134,697 98,791 98,791 C 98,791 81,783 72,786 C 64,790 55,872 53,881 C 52,892 101,937 174,946 C 252,956 317,911 427,911 C 533,911 561,919 647,934 C 660,922 665,868 658,804 C 658,804 680,802 701,790 C 701,790 672,716 667,701 C 662,687 669,660 657,651 C 645,642 578,665 549,663 C 521,662 525,641 525,606 C 524,574 519,560 541,539 C 588,563 629,582 633,578 C 642,568 589,446 566,387 C 566,387 654,414 702,364 C 702,364 659,347 604,310 C 606,310 669,295 700,220 C 700,220 637,237 558,223 C 558,223 591,208 602,174 C 572,175 525,170 462,153 C 451,150 439,149 428,149 C 427,149 427,149 427,149 C 427,149 427,149 427,149 C 427,149 427,149 427,149 C 427,149 427,149 426,149 C 426,149 426,149 426,149 C 426,149 426,149 426,149 C 426,149 426,149 426,149 C 426,149 426,149 426,149 C 426,149 426,149 426,149 C 426,149 426,149 426,149 C 426,149 426,149 426,149 C 426,149 426,149 426,149 C 426,149 426,149 426,149 C 426,149 426,149 426,149 z M 427,171 C 472,176 508,191 553,196 C 533,215 522,220 505,236 C 564,248 582,250 643,254 C 613,280 599,293 562,308 C 598,334 603,344 643,365 C 607,376 569,368 535,356 C 535,356 535,356 535,356 C 535,356 535,356 535,356 C 535,356 535,356 535,356 C 535,356 535,356 535,356 C 535,356 534,356 534,357 C 534,358 542,381 554,411 C 522,394 481,370 458,348 L 471,436 C 471,436 426,402 393,350 L 395,446 C 357,418 326,380 309,338 C 297,305 297,263 313,230 C 338,193 382,173 426,171 L 426,171 L 427,171 z M 298,356 C 302,369 307,373 320,389 L 243,492 L 194,499 C 194,498 273,390 298,356 z M 518,428 L 558,442 L 589,527 L 542,505 L 518,428 z M 392,482 C 385,562 367,579 342,565 C 336,552 327,548 314,548 C 313,548 312,549 310,549 C 300,550 291,549 284,551 C 283,549 282,548 281,547 C 274,538 275,538 300,504 L 351,516 L 355,489 L 392,482 z M 274,505 C 269,513 262,524 257,532 C 248,546 251,553 259,567 C 249,581 231,611 259,616 C 261,616 264,616 266,617 C 266,628 273,653 289,658 C 307,663 286,688 274,687 C 260,686 260,676 249,670 C 240,666 231,672 223,659 L 216,516 L 274,505 z M 504,560 L 505,597 C 505,597 412,611 404,618 C 397,625 370,689 370,689 L 331,673 C 331,673 361,599 369,592 C 378,585 504,560 504,560 z M 298,566 C 298,566 298,566 298,566 C 298,566 298,566 298,566 C 298,566 298,566 298,566 C 299,566 299,566 299,566 C 299,566 299,566 299,566 C 299,566 299,566 299,566 C 299,566 299,566 299,566 C 299,566 300,566 300,566 C 300,566 300,566 300,566 C 300,566 300,566 301,566 C 307,566 314,568 320,570 C 335,577 341,636 327,627 C 307,614 298,606 272,600 C 258,596 269,583 275,576 C 281,570 289,567 298,566 z M 637,683 C 637,683 637,683 637,683 C 637,683 637,683 637,683 C 637,683 637,683 637,683 C 637,683 637,683 637,683 C 649,737 667,777 667,777 C 608,796 537,784 537,784 C 545,731 545,688 545,688 C 592,690 634,684 637,683 z M 222,686 C 222,686 222,686 222,686 C 222,686 222,686 222,686 C 222,686 223,686 223,686 C 223,686 223,686 223,686 C 229,686 235,687 238,690 C 257,703 258,746 244,781 C 230,815 173,837 173,837 L 115,799 C 141,739 145,720 158,708 C 162,705 198,687 222,686 z M 322,689 C 322,689 322,689 322,689 C 322,689 322,689 322,689 C 322,689 322,689 322,689 C 322,689 322,689 322,689 C 322,689 322,689 322,689 C 333,689 423,732 513,810 C 513,810 503,851 476,888 C 381,801 282,765 276,755 C 271,745 275,720 281,708 C 288,696 311,691 321,689 C 321,689 322,689 322,689 C 322,689 322,689 322,689 z M 319,708 C 307,709 298,719 298,731 C 298,743 308,753 320,753 C 333,753 343,743 343,731 C 343,718 333,708 320,708 C 320,708 319,708 319,708 C 319,708 319,708 319,708 C 319,708 319,708 319,708 z M 249,815 C 285,863 228,888 201,855 C 223,843 249,815 249,815 z" style="opacity:1;fill:#000000;fill-opacity:1;fill-rule:evenodd;stroke:none;stroke-width:1px;stroke-linecap:butt;stroke-linejoin:miter;stroke-opacity:1"/>
</svg>