<?xml version="1.0"?>
<svg height="297mm" width="210mm" xmlns="http://www.w3.org/2000/svg">
    <path d="M 401,135 C 401,135 401,135 401,135 C 401,135 401,135 401,135 C 401,135 401,135 401,135 C 374,135 346,144 324,165 L 368,211 C 361,218 357,228 356,239 C 312,246 270,263 245,274 C 240,268 232,263 223,263 C 208,263 196,275 196,291 C 196,297 198,304 202,308 C 192,325 164,369 166,372 C 169,376 192,385 215,384 C 216,403 215,442 204,480 C 192,524 197,563 215,620 C 231,667 224,692 203,714 C 179,717 166,717 146,713 C 123,709 116,722 118,739 C 121,762 113,801 85,842 C 155,877 264,855 265,844 C 265,836 255,793 244,757 C 262,751 294,739 299,739 C 307,739 385,765 387,775 C 389,785 383,854 387,859 C 391,864 410,865 414,860 C 418,855 413,782 418,774 C 424,765 482,748 490,748 C 496,748 530,755 548,761 C 538,796 525,839 526,847 C 527,858 632,883 703,847 C 687,798 676,773 677,749 C 678,724 674,714 651,718 C 628,722 602,721 568,718 C 535,714 525,703 519,699 C 513,695 509,633 509,633 C 509,633 505,634 505,635 C 535,583 545,560 533,532 C 517,498 519,479 530,428 C 536,400 570,343 573,323 C 578,293 581,294 552,281 C 529,271 487,253 443,244 C 443,243 443,242 443,241 C 443,229 438,217 429,209 C 442,195 458,178 472,161 C 459,145 432,135 402,135 C 402,135 402,135 401,135 C 401,135 401,135 401,135 C 401,135 401,135 401,135 C 401,135 401,135 401,135 C 401,135 401,135 401,135 C 401,135 401,135 401,135 C 401,135 401,135 401,135 C 401,135 401,135 401,135 C 401,135 401,135 401,135 C 401,135 401,135 401,135 C 401,135 401,135 401,135 C 401,135 401,135 401,135 C 401,135 401,135 401,135 C 401,135 401,135 401,135 C 401,135 401,135 401,135 z M 397,219 C 397,219 397,219 397,219 C 397,219 397,219 397,219 C 397,219 397,219 397,219 C 397,219 397,219 397,219 C 397,219 397,219 397,219 C 397,219 397,219 397,219 C 397,219 397,219 397,219 C 397,219 397,219 397,219 C 397,219 397,219 397,219 C 397,219 397,219 397,219 C 397,219 397,219 397,219 C 397,219 397,219 397,219 C 397,219 397,219 397,219 C 397,219 397,219 397,219 C 397,219 397,219 397,219 C 397,219 397,219 397,219 C 397,219 398,219 398,219 C 398,219 398,219 398,219 C 398,219 398,219 398,219 C 398,219 398,219 398,219 C 398,219 398,219 398,219 C 398,219 399,219 399,219 C 411,219 421,229 421,241 C 421,253 411,262 399,262 C 387,262 377,253 377,241 C 377,229 386,220 397,219 z M 359,266 C 359,266 359,266 359,266 C 359,266 359,266 359,266 C 359,266 359,266 359,266 C 359,266 359,266 359,266 C 359,266 359,266 359,266 C 359,266 359,266 359,266 C 359,266 359,266 359,266 C 359,266 359,266 359,266 C 359,266 359,266 359,266 C 359,266 359,266 359,266 C 359,266 359,266 359,266 C 359,266 359,266 359,266 C 359,266 359,266 359,266 C 359,266 359,266 359,266 C 359,266 359,266 359,266 C 359,266 359,266 359,266 C 360,266 360,266 360,266 C 369,266 371,274 366,281 C 360,288 350,299 344,303 C 338,307 315,309 300,312 C 285,315 266,322 256,325 C 246,328 246,316 246,306 C 246,296 258,291 283,283 C 307,276 345,269 357,267 C 357,266 358,266 359,266 z M 436,266 C 436,266 436,266 436,266 C 436,266 436,266 436,266 C 436,266 436,266 436,266 C 436,266 437,266 437,266 C 437,266 437,266 437,266 C 437,266 437,266 437,266 C 437,266 437,266 437,266 C 437,266 437,266 437,266 C 437,266 437,266 437,266 C 438,266 439,266 440,267 C 452,269 488,277 513,285 C 537,293 558,303 558,313 C 558,330 553,339 542,335 C 533,331 512,323 497,319 C 482,316 458,312 451,307 C 445,303 435,293 429,285 C 424,278 427,267 436,266 z M 398,312 C 398,312 398,312 398,312 C 398,312 399,312 399,312 C 399,312 399,312 399,312 C 399,312 399,312 399,312 C 402,312 406,315 407,320 C 411,332 415,345 426,357 C 439,371 430,404 397,404 C 363,404 354,371 373,355 C 386,343 387,332 390,321 C 392,315 395,313 398,313 C 398,313 398,313 398,313 C 398,313 398,313 398,313 C 398,313 398,312 398,312 z M 219,317 C 219,317 219,317 219,317 C 219,317 219,317 219,317 C 219,317 219,317 219,317 C 219,317 219,317 219,317 C 221,318 239,352 236,358 C 231,365 208,366 203,360 C 198,355 219,317 219,317 C 219,317 219,317 219,317 z M 536,358 C 536,358 536,358 536,358 C 536,358 536,358 536,358 C 536,358 537,358 537,358 C 537,358 538,358 539,359 C 548,364 501,468 405,468 C 297,468 250,393 259,383 C 273,369 299,432 397,432 C 481,432 520,360 536,358 z M 250,436 C 268,474 269,492 262,522 C 256,550 248,575 288,637 C 286,657 282,690 278,693 C 274,696 261,702 241,707 C 243,699 246,690 248,677 C 256,639 245,631 231,578 C 220,540 233,488 250,436 z M 386,488 C 386,488 386,488 386,488 C 386,488 387,488 387,488 C 387,488 387,488 388,488 C 392,488 394,488 395,489 C 395,489 395,489 395,489 C 395,489 395,489 395,489 C 400,494 402,537 397,544 C 392,550 287,531 288,512 C 289,501 360,489 386,488 z M 300,546 L 324,554 L 321,573 L 396,574 C 397,579 398,585 398,594 C 398,600 397,604 397,608 C 397,608 397,608 397,608 C 387,620 359,613 358,620 C 358,625 383,639 401,637 C 419,636 439,628 440,621 C 440,618 423,618 416,608 C 416,603 416,602 416,595 C 416,584 415,582 419,574 L 490,575 C 495,587 491,608 488,616 C 485,625 472,634 456,646 C 440,659 419,677 400,677 C 380,677 363,661 352,653 C 343,647 312,637 306,620 C 297,596 300,546 300,546 z M 406,691 C 406,691 406,691 406,691 C 406,691 406,691 406,691 C 406,691 406,691 406,691 C 406,691 406,691 406,691 C 406,691 407,691 407,691 C 407,691 407,691 407,691 C 407,691 407,691 407,691 C 407,691 407,691 407,691 C 408,691 408,691 408,691 C 409,691 409,691 409,691 C 414,691 419,691 420,693 C 423,697 407,749 401,749 C 393,750 381,700 385,696 C 387,693 397,691 406,691 z M 155,732 C 155,732 155,732 155,732 C 155,732 155,732 155,732 C 155,732 155,732 155,732 C 155,732 155,732 155,732 C 155,732 155,732 155,732 C 155,732 155,732 155,732 C 162,732 173,735 184,735 C 199,735 217,731 223,735 C 229,739 242,820 238,825 C 234,830 230,834 189,835 C 148,836 124,832 120,826 C 116,820 125,803 133,781 C 142,755 144,739 149,734 C 150,733 152,732 155,732 C 155,732 155,732 155,732 C 155,732 155,732 155,732 C 155,732 155,732 155,732 z M 623,736 C 624,736 624,736 624,736 C 624,736 624,736 624,736 C 624,736 624,736 625,736 C 625,736 625,736 625,736 C 625,736 625,736 626,736 C 626,736 626,736 626,736 C 626,736 626,736 626,736 C 627,736 627,736 627,736 C 627,736 627,736 627,736 C 628,736 628,736 628,736 C 628,736 628,736 629,736 C 629,736 629,736 629,736 C 629,736 629,736 630,736 C 630,736 630,736 631,736 C 641,736 649,736 652,739 C 657,744 659,759 668,785 C 676,807 679,826 675,832 C 671,838 647,842 607,841 C 566,840 553,835 549,830 C 545,825 566,745 572,741 C 578,737 597,736 612,736 C 615,736 619,736 623,736 z M 295,761 C 282,762 273,773 273,786 C 273,800 284,811 297,811 C 311,811 322,800 322,786 C 322,772 311,761 297,761 C 297,761 297,761 297,761 C 297,761 297,761 297,761 C 297,761 296,761 296,761 C 296,761 296,761 296,761 C 296,761 296,761 296,761 C 296,761 296,761 296,761 C 296,761 296,761 296,761 C 296,761 296,761 296,761 C 296,761 296,761 296,761 C 296,761 296,761 296,761 C 296,761 296,761 296,761 C 296,761 296,761 296,761 C 296,761 296,761 296,761 C 296,761 296,761 296,761 C 295,761 295,761 295,761 C 295,761 295,761 295,761 C 295,761 295,761 295,761 C 295,761 295,761 295,761 C 295,761 295,761 295,761 C 295,761 295,761 295,761 C 295,761 295,761 295,761 C 295,761 295,761 295,761 C 295,761 295,761 295,761 C 295,761 295,761 295,761 C 295,761 295,761 295,761 C 295,761 295,761 295,761 C 295,761 295,761 295,761 C 295,761 295,761 295,761 z M 489,768 C 476,769 467,780 467,793 C 467,806 478,818 491,818 C 505,818 516,806 516,793 C 516,779 505,768 491,768 C 491,768 491,768 491,768 C 491,768 491,768 490,768 C 490,768 490,768 490,768 C 490,768 490,768 490,768 C 490,768 490,768 490,768 C 490,768 490,768 490,768 C 490,768 490,768 490,768 C 490,768 490,768 490,768 C 490,768 490,768 490,768 C 490,768 490,768 490,768 C 490,768 490,768 490,768 C 490,768 490,768 490,768 C 490,768 490,768 490,768 C 490,768 490,768 490,768 C 490,768 490,768 490,768 C 490,768 490,768 490,768 C 489,768 489,768 489,768 C 489,768 489,768 489,768 C 489,768 489,768 489,768 C 489,768 489,768 489,768 C 489,768 489,768 489,768 C 489,768 489,768 489,768 C 489,768 489,768 489,768 C 489,768 489,768 489,768 C 489,768 489,768 489,768 C 489,768 489,768 489,768 C 489,768 489,768 489,768 C 489,768 489,768 489,768 C 489,768 489,768 489,768 C 489,768 489,768 489,768 z" style="opacity:1;fill:#000000;fill-opacity:1;fill-rule:evenodd;stroke:none;stroke-width:1px;stroke-linecap:butt;stroke-linejoin:miter;stroke-opacity:1"/>
</svg>