<?xml version="1.0"?>
<svg height="297mm" width="210mm" xmlns="http://www.w3.org/2000/svg">
    <path d="M 482,133 C 462,135 435,147 412,198 C 411,197 392,158 347,140 C 349,142 363,164 332,237 C 332,237 315,197 269,167 C 254,243 250,276 272,349 C 269,366 268,383 279,395 C 287,405 300,415 298,422 C 207,453 141,539 141,641 C 141,768 245,871 372,871 C 499,871 603,768 603,641 C 603,539 538,453 447,422 C 446,411 450,405 465,398 C 483,389 477,351 454,338 C 451,337 448,335 444,334 C 444,318 456,303 469,291 C 484,276 488,235 479,218 C 469,201 467,180 483,133 C 482,133 482,133 482,133 z M 374,187 C 397,218 392,266 403,267 C 414,268 420,212 448,189 C 464,230 474,256 445,281 C 416,306 419,322 418,340 C 417,357 416,366 393,369 C 370,372 351,340 347,293 C 343,247 378,207 374,187 z M 290,210 C 290,210 304,234 314,260 C 324,287 319,316 350,367 C 350,367 350,367 350,367 C 350,367 350,367 350,367 C 350,367 350,367 350,367 C 350,367 350,367 350,367 C 348,368 324,369 297,340 C 270,310 269,268 290,210 z M 345,450 C 271,537 340,542 395,523 C 450,503 571,532 584,625 C 545,583 464,566 389,644 C 319,716 219,780 178,677 C 148,603 192,462 345,450 z M 509,756 C 487,829 398,856 340,814 C 379,809 465,779 509,756 z M 229,773 C 249,783 267,795 279,817 C 257,814 236,796 229,773 z" style="opacity:1;fill:#000000;fill-opacity:1;stroke:none;stroke-opacity:1"/>
</svg>