<?xml version="1.0"?>
<svg height="297mm" width="210mm" xmlns="http://www.w3.org/2000/svg">

    <path d="M 360,86 C 263,87 176,135 183,159 C 190,182 225,249 220,325 C 210,330 160,356 165,397 C 168,425 187,440 214,447 C 216,459 218,476 220,493 C 211,495 198,498 193,502 C 185,508 174,526 156,563 C 139,599 116,612 118,620 C 120,627 152,650 152,650 C 152,650 87,672 66,682 C 45,692 19,713 50,728 C 82,744 81,738 129,777 C 167,808 184,831 193,842 C 206,858 218,829 236,799 C 251,775 269,760 255,733 C 243,710 223,667 225,641 C 227,616 233,606 233,605 C 233,605 243,611 244,618 C 245,626 244,659 253,682 C 260,703 278,723 288,712 C 299,701 331,644 349,628 C 366,612 382,601 386,608 C 390,616 355,657 312,728 C 268,799 222,879 208,910 C 194,941 200,940 222,933 C 245,920 500,855 521,853 C 542,850 551,839 535,820 C 518,800 419,696 412,677 C 400,647 402,645 426,667 C 440,679 455,696 451,674 C 447,651 438,599 435,586 C 433,573 434,563 445,559 C 457,554 462,561 465,573 C 469,590 479,622 483,639 C 486,652 487,657 499,653 C 512,649 561,627 577,622 C 592,616 601,615 607,626 C 613,637 595,643 585,649 C 575,654 499,687 488,694 C 477,701 473,706 488,723 C 504,740 539,775 553,789 C 567,803 570,803 595,800 C 634,796 687,748 695,736 C 703,723 706,710 692,702 C 678,694 653,674 646,667 C 639,660 627,657 635,643 C 642,629 636,630 623,617 C 611,604 587,579 584,547 C 578,487 561,505 569,474 C 578,440 593,443 605,445 C 610,448 615,447 618,442 C 632,416 630,369 552,347 C 548,262 576,212 602,142 C 504,91 464,86 364,86 C 363,86 362,86 361,86 C 361,86 360,86 360,86 z M 546,154 C 546,154 546,154 546,154 C 546,154 546,154 546,154 C 546,154 546,154 546,154 C 547,154 547,154 547,154 C 547,154 547,154 547,154 C 558,153 565,156 566,157 C 566,157 566,157 566,157 C 567,161 552,191 542,227 C 531,263 525,301 521,302 C 511,305 506,295 492,294 C 478,293 473,301 464,293 C 456,284 460,252 485,197 C 501,163 528,154 546,154 z M 308,269 C 308,269 308,269 308,269 C 308,269 309,269 309,269 C 309,269 309,269 309,269 C 310,269 310,269 310,269 C 318,269 324,270 326,272 C 330,276 330,288 331,308 C 333,334 332,346 327,351 C 322,355 314,355 294,356 C 274,356 266,356 261,352 C 257,348 256,336 256,315 C 256,294 255,280 258,275 C 261,271 274,271 291,270 C 297,269 303,269 308,269 z M 291,288 C 291,288 290,288 290,288 C 283,288 277,292 277,311 C 278,329 278,336 290,336 C 305,336 306,329 306,306 C 305,289 304,288 293,288 C 293,288 293,288 293,288 C 292,288 292,288 292,288 C 292,288 292,288 291,288 C 291,288 291,288 291,288 z M 471,324 C 471,324 471,324 471,324 C 471,324 471,324 471,324 C 471,324 471,324 471,324 C 472,324 472,324 472,324 C 496,324 514,333 514,339 C 513,350 459,341 385,382 C 278,441 261,428 261,421 C 261,415 281,410 308,395 C 338,379 386,354 429,334 C 444,327 458,325 471,324 C 471,324 471,324 471,324 z M 483,392 C 496,392 511,398 534,409 C 563,421 556,433 554,452 C 552,470 542,488 531,489 C 521,490 525,478 524,466 C 523,454 518,438 505,438 C 492,438 492,456 490,471 C 488,485 478,500 466,509 C 455,517 434,526 433,527 C 434,525 453,464 458,446 C 466,420 457,399 473,394 C 477,393 480,392 483,392 z M 438,396 C 438,396 438,396 438,396 C 443,417 445,459 395,550 C 369,598 345,600 315,604 C 252,610 240,584 245,566 C 254,558 265,552 272,552 C 290,552 298,563 319,560 C 340,557 357,530 357,530 C 357,530 333,535 321,519 C 311,507 301,500 288,497 C 286,489 286,480 287,473 C 288,465 291,455 294,447 C 297,447 300,446 303,446 C 303,446 303,446 303,446 C 310,446 313,449 319,456 C 330,468 342,477 366,470 C 387,464 400,447 401,429 C 402,419 406,411 413,405 C 413,405 413,405 413,405 C 413,405 413,405 413,405 C 413,405 413,405 413,405 C 413,405 413,405 413,405 C 421,402 430,399 438,396 z M 238,450 C 247,451 257,451 267,450 L 259,500 C 253,502 246,506 240,509 C 239,487 238,465 238,450 z" id="path2260" style="fill:#000000;fill-opacity:1;fill-rule:evenodd;stroke:#000000;stroke-width:1px;stroke-linecap:butt;stroke-linejoin:miter;stroke-opacity:1"/>
</svg>