<?xml version="1.0"?>
<svg height="297mm" width="210mm" xmlns="http://www.w3.org/2000/svg">
    <path d="M 430,99 C 374,100 319,133 309,210 C 309,210 214,244 113,281 C 115,300 118,317 121,333 C 106,384 95,446 127,452 C 153,458 159,438 160,421 C 182,451 215,479 264,510 C 250,546 239,578 241,604 C 243,627 272,677 292,708 C 285,710 279,715 277,728 C 272,752 246,856 246,856 C 246,856 322,900 398,898 C 474,896 535,852 535,852 C 535,852 514,743 512,734 C 510,727 510,715 500,710 C 543,647 556,632 557,595 C 558,573 544,544 531,522 C 545,502 547,482 540,451 C 617,359 607,233 549,152 C 525,119 478,98 431,99 C 431,99 431,99 431,99 C 431,99 430,99 430,99 z M 441,117 C 573,116 617,329 533,416 C 534,413 547,331 517,273 C 517,273 530,358 483,383 C 484,365 483,311 455,258 C 455,260 474,351 426,366 C 426,353 422,303 389,249 C 404,295 411,348 356,374 C 357,371 352,319 339,284 C 325,246 305,120 440,117 C 440,117 441,117 441,117 z M 299,234 C 299,234 299,234 299,234 C 300,234 300,234 300,234 C 300,234 300,234 300,234 C 300,234 300,234 300,234 C 300,234 300,234 300,234 C 300,234 300,234 300,234 C 300,234 300,234 300,234 C 306,236 313,258 311,263 C 309,268 151,326 145,323 C 139,320 134,302 138,294 C 143,287 285,235 299,234 z M 406,359 L 413,411 L 461,368 L 463,432 L 509,390 C 509,390 511,427 503,451 C 489,456 416,460 368,458 C 321,456 292,437 291,437 C 291,437 291,437 291,437 C 291,437 291,437 291,436 C 291,436 291,436 291,436 C 291,436 291,436 291,436 C 291,436 291,436 291,436 C 291,436 291,436 291,436 C 291,436 291,436 291,436 C 291,436 291,436 291,436 C 291,436 291,436 291,436 C 291,434 288,425 301,406 C 316,384 342,372 342,372 L 351,414 L 406,359 z M 158,368 C 158,368 158,368 158,368 C 158,368 158,368 158,368 C 158,368 158,368 158,368 C 158,368 158,368 158,368 C 168,367 213,426 286,460 C 361,496 511,467 520,471 C 529,475 523,500 519,505 C 515,510 412,532 306,504 C 201,476 149,378 157,368 C 157,368 157,368 157,368 C 157,368 157,368 158,368 C 158,368 158,368 158,368 z M 389,536 C 389,536 390,536 390,536 C 390,536 390,536 391,536 L 392,584 C 363,583 340,575 302,561 C 312,545 333,538 389,536 z M 505,567 C 498,606 491,660 476,671 C 460,683 447,681 433,670 C 420,659 417,647 418,627 C 418,623 418,620 418,616 C 434,615 471,613 474,611 C 476,609 468,598 463,591 C 476,586 490,578 505,567 z M 295,579 C 310,584 323,589 334,593 L 325,612 C 325,612 361,617 369,614 C 373,612 380,607 385,604 C 387,604 390,604 393,604 L 395,650 C 395,650 377,659 367,671 C 358,683 343,687 319,666 C 298,648 291,604 295,579 z M 405,705 C 405,705 405,705 405,705 C 405,705 405,705 405,705 C 405,705 405,705 405,705 C 405,705 405,705 405,705 C 405,705 405,705 405,705 C 405,705 405,705 405,705 C 409,705 413,706 417,709 C 426,716 426,719 441,718 C 445,757 366,776 355,719 C 374,718 389,719 395,711 C 398,707 401,705 405,705 C 405,705 405,705 405,705 C 405,705 405,705 405,705 C 405,705 405,705 405,705 z M 297,744 C 297,744 297,744 297,744 C 297,744 297,744 297,744 C 304,743 370,770 374,776 C 378,782 396,870 389,878 C 382,887 367,883 362,878 C 358,872 350,800 346,793 C 341,787 297,772 293,766 C 289,759 292,745 297,744 C 297,744 297,744 297,744 C 297,744 297,744 297,744 z M 493,748 C 493,748 493,748 493,748 C 493,748 493,748 493,748 C 493,748 493,748 493,748 C 493,748 493,748 493,748 C 493,748 493,748 493,748 C 493,748 493,748 493,748 C 493,748 493,748 493,748 C 493,748 493,748 493,748 C 493,748 494,748 494,748 C 494,748 494,748 494,748 C 499,750 501,766 497,772 C 492,778 454,789 450,795 C 446,802 431,870 426,875 C 421,881 405,885 398,876 C 391,868 410,782 419,775 C 427,768 482,749 493,748 z" style="opacity:1;fill:#000000;fill-opacity:1;fill-rule:evenodd;stroke:#000000;stroke-width:1px;stroke-linecap:butt;stroke-linejoin:miter;stroke-opacity:1"/>
</svg>