<?xml version="1.0"?>
<svg height="297mm" width="210mm" xmlns="http://www.w3.org/2000/svg">
    <path d="M 190,152 C 168,153 150,171 150,194 C 150,215 166,233 186,236 C 187,245 188,255 188,264 C 190,291 208,491 200,501 C 192,510 158,504 137,503 C 116,503 114,534 137,536 C 156,537 178,540 201,539 C 202,544 203,550 203,556 C 204,577 180,600 171,613 C 161,625 163,638 173,641 C 184,643 178,647 178,653 C 178,660 177,670 185,678 C 195,689 185,698 185,715 C 186,729 196,739 218,747 C 231,798 224,859 222,883 C 287,873 448,834 465,824 C 463,802 449,724 451,711 C 453,700 448,691 440,690 C 439,662 448,646 470,620 C 499,586 488,521 468,508 C 475,403 440,283 429,237 C 417,188 410,180 397,181 C 388,181 293,187 235,193 C 234,170 215,152 192,152 C 192,152 192,152 192,152 C 191,152 191,152 191,152 C 191,152 191,152 191,152 C 191,152 191,152 191,152 C 190,152 190,152 190,152 C 190,152 190,152 190,152 z M 379,199 C 379,199 379,199 379,199 C 379,199 380,199 380,199 C 393,199 400,200 401,201 C 405,203 414,226 409,231 C 404,235 342,234 339,240 C 337,245 349,462 353,468 C 358,473 444,458 446,462 C 449,466 451,487 445,490 C 439,493 401,498 338,505 C 275,512 231,515 228,512 C 225,508 223,493 230,485 C 236,477 314,479 320,471 C 325,463 310,245 304,241 C 299,238 218,257 212,254 C 206,250 204,225 209,221 C 213,218 255,209 316,203 C 344,200 364,199 378,199 C 378,199 378,199 379,199 z M 216,325 C 275,333 270,416 218,423 C 215,392 209,342 216,325 z M 320,531 C 320,531 249,715 245,723 C 239,733 223,729 216,725 C 206,720 204,707 208,702 C 211,696 210,690 206,684 C 203,679 209,671 214,667 C 220,662 228,647 229,641 C 230,634 213,639 196,634 C 181,630 201,608 215,594 C 219,599 225,606 228,606 C 232,607 282,588 285,581 C 286,575 235,562 223,559 C 222,556 222,554 222,551 C 222,545 224,542 228,538 C 248,536 283,534 320,531 z M 382,586 C 382,586 382,586 382,586 C 382,586 382,586 382,586 C 382,586 382,586 382,586 C 382,586 382,586 382,586 C 383,586 383,586 383,586 C 383,586 383,586 383,586 C 385,586 387,587 390,589 C 407,605 394,628 390,636 C 385,645 377,656 367,658 C 353,660 355,675 364,677 C 386,681 394,655 410,667 C 420,674 421,688 413,698 C 402,703 386,708 366,713 C 348,718 314,723 283,728 L 320,633 C 344,631 358,627 365,612 C 370,600 375,587 382,586 z M 402,731 C 402,731 402,731 402,731 C 402,731 402,731 402,731 C 402,731 402,731 402,731 C 402,731 402,731 402,731 C 403,731 403,731 403,731 C 403,731 403,731 403,731 C 403,731 403,731 403,731 C 403,731 403,731 403,731 C 403,731 403,731 403,731 C 403,731 403,731 403,731 C 410,732 412,748 408,755 C 405,761 269,796 265,791 C 259,783 262,764 270,761 C 280,756 389,732 402,731 z M 409,780 C 409,780 409,780 409,780 C 409,780 409,780 409,780 C 409,780 409,780 409,780 C 409,780 409,780 409,780 C 409,780 409,780 409,780 C 409,780 409,780 409,780 C 410,780 410,780 410,780 C 416,781 418,798 415,804 C 411,810 270,850 266,845 C 260,838 263,819 270,815 C 281,810 397,781 409,780 C 409,780 409,780 409,780 C 409,780 409,780 409,780 C 409,780 409,780 409,780 z" style="opacity:1;fill:#000000;fill-opacity:1;fill-rule:evenodd;stroke:none;stroke-width:1px;stroke-linecap:butt;stroke-linejoin:miter;stroke-opacity:1"/>
</svg>