<?xml version="1.0"?>
<svg height="297mm" width="210mm" xmlns="http://www.w3.org/2000/svg">
    <path d="M 92,99 C 92,99 92,99 92,99 C 87,100 73,187 82,212 C 86,223 94,232 103,240 C 64,309 88,368 119,392 C 151,417 176,446 156,479 C 136,513 117,493 112,517 C 108,541 154,586 176,584 C 199,582 183,538 203,539 L 279,747 L 324,740 L 265,555 C 330,562 340,544 367,543 C 402,541 424,556 461,553 C 499,550 505,540 552,529 C 598,518 605,536 620,530 C 636,525 644,504 623,450 C 602,395 587,384 570,343 C 548,293 567,271 544,218 C 526,175 515,165 507,166 C 507,166 507,166 507,166 C 507,166 507,166 507,166 C 507,166 507,166 507,166 C 507,166 507,166 507,166 C 507,166 507,166 507,166 C 507,166 507,166 507,166 C 507,166 507,166 507,166 C 507,166 507,166 507,166 C 507,166 507,166 507,166 C 505,166 504,166 502,167 C 494,171 467,190 424,193 C 380,195 349,181 304,185 C 259,190 253,215 210,221 C 187,224 171,222 160,220 C 164,206 167,197 163,184 C 158,168 97,99 92,99 C 92,99 92,99 92,99 z M 110,154 C 126,165 142,184 145,194 C 148,204 139,224 133,227 C 127,230 105,223 100,209 C 95,195 101,183 110,154 z M 497,197 C 497,197 497,197 497,197 C 497,197 497,197 497,197 C 497,197 497,197 497,197 C 497,197 497,197 497,197 C 497,197 497,197 497,197 C 497,197 497,197 497,197 C 497,197 497,197 497,197 C 497,197 497,197 497,197 C 497,197 497,197 497,197 C 497,197 497,197 497,197 C 497,197 497,197 497,197 C 497,197 497,197 497,197 C 497,197 497,197 497,197 C 502,197 506,199 510,201 C 521,210 522,228 517,241 C 506,261 486,274 471,292 C 465,299 460,310 449,311 C 442,310 442,300 444,295 C 453,269 464,244 475,219 C 479,209 485,198 497,197 C 497,197 497,197 497,197 C 497,197 497,197 497,197 C 497,197 497,197 497,197 C 497,197 497,197 497,197 z M 180,245 C 180,245 180,245 180,245 C 180,245 180,245 180,245 C 180,245 180,245 180,245 C 180,245 181,245 181,245 C 181,245 181,245 181,245 C 181,245 181,245 181,245 C 181,245 181,245 181,245 C 187,245 193,246 200,247 C 221,251 218,267 249,284 C 280,301 312,305 304,321 C 295,336 269,321 229,309 C 203,302 181,289 173,266 C 168,251 171,246 180,245 z M 152,257 L 235,513 L 211,522 L 126,266 L 152,257 z M 113,278 L 148,386 C 111,363 91,340 113,278 z M 369,289 C 383,314 431,327 435,351 C 438,374 413,383 417,402 C 421,422 423,412 427,429 C 433,459 373,469 371,435 C 370,414 384,414 381,400 C 377,386 335,378 329,359 C 324,340 350,312 369,289 z M 454,400 C 454,400 454,400 454,400 C 454,400 454,400 454,400 C 454,400 454,400 454,400 C 454,400 454,400 454,400 C 454,400 454,400 454,400 C 454,400 454,400 454,400 C 454,400 454,400 454,400 C 454,400 454,400 454,400 C 455,400 455,400 455,400 C 455,400 455,400 456,400 C 471,400 486,407 501,411 C 522,419 545,424 566,433 C 585,442 604,456 606,478 C 606,484 609,493 603,498 C 597,500 590,499 584,498 C 568,490 555,475 540,464 C 524,449 504,440 485,431 C 473,424 459,420 450,410 C 446,406 450,400 454,400 z M 335,404 C 335,404 336,404 336,404 C 338,404 339,405 340,406 C 352,422 321,440 308,467 C 295,494 288,537 279,537 C 269,537 258,528 252,515 L 248,502 C 247,497 247,493 248,488 C 251,466 315,406 335,404 z M 176,485 L 186,513 C 176,547 177,569 150,547 C 116,520 136,513 149,504 C 159,497 169,491 176,485 z" style="opacity:1;fill:#000000;fill-opacity:1;fill-rule:evenodd;stroke:none;stroke-width:1px;stroke-linecap:butt;stroke-linejoin:miter;stroke-opacity:1"/>
</svg>