<?xml version="1.0"?>
<svg height="297mm" width="210mm" xmlns="http://www.w3.org/2000/svg">
    <path d="M 401,116 C 401,116 401,117 400,117 C 400,117 400,116 399,117 C 399,117 399,116 398,117 C 398,117 398,116 398,117 C 397,117 397,116 397,117 C 339,118 282,148 249,195 C 241,206 235,218 228,230 C 226,230 224,229 222,229 C 214,229 206,236 206,245 C 206,248 207,252 209,254 C 201,260 193,264 185,271 C 169,283 141,295 131,313 C 128,320 133,330 141,330 C 159,335 188,332 206,333 C 217,333 228,334 239,335 C 236,338 233,341 231,344 C 220,356 207,368 203,384 C 203,392 205,400 208,408 C 206,410 204,413 202,418 C 192,435 199,454 217,463 C 219,464 221,464 224,465 C 219,479 212,496 220,510 C 228,523 242,530 257,531 C 255,554 249,625 249,636 C 248,648 246,658 239,669 C 238,670 236,673 233,677 C 231,681 225,680 214,681 C 190,681 184,708 193,721 C 198,728 200,733 199,737 C 197,740 180,769 171,784 C 168,788 164,786 152,787 C 121,787 117,836 146,846 C 156,850 160,842 163,837 C 165,833 255,677 259,671 C 265,660 269,647 271,634 C 273,624 277,560 279,531 C 287,529 294,525 300,520 C 348,504 453,483 484,485 C 484,497 492,512 486,512 C 444,517 315,537 313,550 C 311,559 304,614 310,622 C 313,627 356,608 413,600 C 470,591 501,587 501,587 C 501,587 508,603 504,610 C 422,626 302,650 299,654 C 296,658 176,863 176,864 C 303,824 358,866 458,841 C 557,816 620,763 617,754 C 614,745 527,595 525,584 C 523,572 496,484 515,460 C 524,448 554,451 576,455 C 587,455 600,450 602,438 C 604,410 581,387 584,358 C 587,342 591,325 593,309 C 598,274 596,237 579,205 C 556,164 513,135 467,125 C 446,119 424,116 402,116 C 401,116 401,116 401,116 C 401,116 401,116 401,116 C 401,116 401,116 401,116 C 401,116 401,116 401,116 C 401,116 401,116 401,116 C 401,116 401,116 401,116 C 401,116 401,116 401,116 z M 400,132 C 400,132 400,132 400,132 C 400,132 400,132 400,132 C 400,132 400,132 400,132 C 400,132 401,132 401,132 C 401,132 401,132 401,132 C 401,132 401,132 401,132 C 423,132 445,135 466,141 C 505,150 547,178 559,200 C 571,222 569,246 552,252 C 511,267 493,210 431,216 C 371,222 340,255 302,292 C 302,292 302,292 302,292 C 302,292 302,292 302,292 C 302,292 302,292 302,292 C 302,292 302,292 302,292 C 304,294 356,299 412,321 C 469,342 465,386 572,390 C 577,404 585,418 586,432 C 588,438 581,439 577,439 C 556,435 535,433 513,432 C 485,429 462,426 433,424 C 413,424 391,415 375,402 C 358,389 347,371 332,355 C 306,329 269,320 233,318 C 208,316 183,319 158,316 C 168,304 180,294 193,285 C 204,275 217,270 228,260 C 228,260 228,260 228,260 C 228,260 228,260 228,260 C 234,258 238,252 238,246 C 245,234 251,221 259,209 C 289,163 343,134 398,133 C 399,133 399,133 399,133 C 399,133 399,133 399,133 C 399,133 399,133 399,133 C 399,133 399,133 399,133 C 399,133 399,133 399,133 C 399,133 399,133 399,133 C 399,133 399,133 399,133 C 399,133 399,133 399,133 C 399,133 399,133 399,133 C 399,133 399,133 399,133 C 400,132 400,133 400,133 C 400,133 400,132 400,132 z M 292,238 C 283,238 277,245 277,254 C 277,262 284,269 292,269 C 301,269 308,262 308,254 C 308,245 301,238 292,238 C 292,238 292,238 292,238 z M 353,254 C 353,254 353,254 353,254 C 353,254 353,254 353,254 C 353,254 353,254 353,254 C 353,254 353,254 353,254 C 353,254 353,254 353,254 C 353,254 353,254 353,254 C 353,254 353,254 353,254 C 353,254 354,254 354,254 C 354,254 354,254 354,254 C 354,254 354,254 354,254 C 354,254 354,254 354,254 C 354,254 354,254 355,254 C 363,254 371,261 371,270 C 371,279 363,286 355,286 C 346,286 339,279 339,270 C 339,262 345,255 353,254 z M 431,277 C 431,277 432,277 432,277 C 432,277 432,277 432,277 C 432,277 432,277 432,277 C 432,277 432,277 432,277 C 432,277 432,277 432,277 C 432,277 432,277 432,277 C 432,277 432,277 432,277 C 432,277 432,277 432,277 C 432,277 432,277 432,277 C 432,277 432,277 432,277 C 432,277 432,277 432,277 C 432,277 432,277 432,277 C 432,277 432,277 432,277 C 433,277 433,277 433,277 C 442,277 449,284 449,293 C 449,302 442,309 433,309 C 424,309 417,302 417,293 C 417,285 423,278 431,277 z M 500,315 C 500,315 500,315 500,315 C 500,315 500,315 500,315 C 500,315 500,315 500,315 C 500,315 501,315 501,315 C 510,315 517,322 517,331 C 517,339 510,347 501,347 C 492,347 485,339 485,331 C 485,322 491,315 499,315 C 499,315 499,315 499,315 C 499,315 500,315 500,315 C 500,315 500,315 500,315 C 500,315 500,315 500,315 C 500,315 500,315 500,315 C 500,315 500,315 500,315 C 500,315 500,315 500,315 C 500,315 500,315 500,315 C 500,315 500,315 500,315 C 500,315 500,315 500,315 C 500,315 500,315 500,315 z M 256,340 L 267,363 L 310,357 C 311,358 312,358 313,359 C 332,374 341,399 360,414 C 361,415 361,415 362,416 C 346,438 330,460 313,482 C 302,495 292,512 274,515 C 260,517 244,516 235,504 C 228,492 237,480 240,468 C 270,471 312,463 304,410 C 285,436 254,438 248,403 C 248,403 233,403 223,402 C 223,402 223,402 223,402 C 221,397 219,391 219,385 C 224,373 234,364 242,354 C 246,351 252,344 256,340 z M 388,438 C 398,449 407,460 417,472 C 397,475 377,479 357,483 C 367,469 377,455 387,440 C 387,440 387,439 388,438 z M 425,646 C 425,646 425,646 425,646 C 425,646 425,646 425,646 C 425,646 425,646 425,646 C 426,646 426,646 426,646 C 426,646 427,646 427,646 C 445,646 460,661 460,679 C 460,697 445,712 427,712 C 409,712 394,697 394,679 C 394,662 408,647 425,646 z M 473,673 C 473,674 493,687 495,698 C 497,709 498,742 504,746 C 510,750 531,752 529,770 C 527,788 517,796 506,793 C 494,790 476,788 431,793 C 386,798 347,815 330,817 C 314,819 304,800 311,784 C 318,768 332,775 335,766 C 338,757 342,710 370,685 C 379,704 393,714 393,714 C 393,714 364,767 371,773 C 378,779 465,768 470,759 C 475,750 458,711 458,711 C 458,711 467,702 471,693 C 475,684 473,674 473,673 z" style="opacity:1;fill:#000000;fill-opacity:1;fill-rule:evenodd;stroke:none;stroke-width:1px;stroke-linecap:butt;stroke-linejoin:miter;stroke-opacity:1"/>
</svg>