<?xml version="1.0"?>
<svg height="297mm" width="210mm" xmlns="http://www.w3.org/2000/svg">
    <path d="M 313,80 C 292,81 283,93 281,128 C 279,128 276,128 274,128 C 244,130 234,145 225,170 C 217,195 196,313 197,314 C 187,375 199,378 232,383 C 239,384 248,385 257,385 C 246,401 235,417 225,433 C 225,433 225,433 225,433 C 217,437 203,439 186,428 C 186,430 193,478 225,478 C 220,494 216,511 225,526 C 231,535 240,539 250,541 L 249,578 C 211,582 174,588 137,597 C 119,603 103,621 106,641 C 109,655 124,661 137,660 C 155,661 172,661 190,661 C 182,670 183,683 189,693 C 195,709 202,724 211,739 C 206,757 200,775 195,792 C 266,813 344,811 415,790 C 423,793 431,797 439,800 C 446,796 453,790 458,784 C 513,806 548,816 558,807 C 571,797 594,780 596,738 C 598,697 583,654 552,641 C 544,638 533,633 521,627 C 541,608 556,594 564,552 C 572,510 554,474 531,437 C 541,391 548,321 542,282 C 535,242 529,169 495,161 C 436,145 395,137 365,132 C 365,94 354,84 326,81 C 322,80 319,80 315,80 C 315,80 315,80 314,80 C 314,80 314,80 314,80 C 314,80 314,80 314,80 C 314,80 314,80 313,80 C 313,80 313,80 313,80 C 313,80 313,80 313,80 z M 352,148 C 365,152 378,155 392,158 C 393,170 396,188 398,204 C 402,235 400,259 409,289 C 418,307 442,324 463,318 C 481,311 487,289 487,270 C 488,255 471,203 460,175 C 472,178 486,179 496,186 C 520,216 528,257 520,295 C 516,325 492,355 460,359 C 418,364 377,332 367,292 C 366,282 365,271 364,261 C 341,301 312,304 290,304 C 266,304 217,276 228,230 C 260,241 299,280 363,237 C 360,209 358,180 352,151 C 352,150 352,149 352,148 z M 428,381 C 428,381 428,381 428,381 C 428,381 428,381 428,381 C 445,381 464,397 453,413 C 443,430 422,464 402,485 C 401,486 400,488 398,489 C 413,499 427,509 438,516 C 425,523 389,524 364,525 C 376,508 389,498 398,489 C 392,485 386,480 380,476 C 379,475 378,474 377,474 C 377,474 377,474 377,474 C 377,474 377,474 377,474 C 377,474 377,474 377,474 C 377,474 377,473 377,473 C 377,473 377,473 377,473 C 377,473 377,473 377,473 C 377,473 377,473 377,473 C 377,473 377,473 377,473 C 377,473 377,473 376,473 C 376,473 376,473 376,473 C 376,473 376,473 376,473 C 376,473 376,473 376,473 C 376,473 376,473 376,473 C 376,473 376,473 376,473 C 376,473 376,473 376,473 C 376,473 376,473 376,473 C 376,472 376,472 376,472 C 376,472 376,472 376,472 C 376,472 376,472 376,472 C 376,472 376,472 376,472 C 376,472 376,472 376,472 C 376,472 376,472 376,472 C 376,472 376,472 376,472 C 376,472 376,472 376,472 C 376,472 376,472 376,472 C 376,472 376,472 376,472 C 376,472 376,472 376,472 C 376,472 376,472 376,472 C 376,472 376,472 376,472 C 376,472 375,472 375,472 C 375,472 375,472 375,472 C 375,472 375,472 375,472 C 375,472 375,472 375,472 C 375,472 375,472 375,472 C 375,472 375,472 375,472 C 375,472 375,472 375,472 C 375,472 375,472 375,472 C 375,472 375,472 375,472 C 375,472 375,472 375,472 C 375,472 375,472 375,472 C 375,472 375,472 375,472 C 375,472 375,472 375,472 C 375,472 375,472 375,472 C 375,471 375,471 375,471 C 375,471 375,471 375,471 C 375,471 375,471 375,471 C 375,471 375,471 375,471 C 375,471 375,471 375,471 C 375,471 375,471 375,471 C 375,471 375,471 375,471 C 375,471 375,471 375,471 C 375,471 375,471 375,471 C 375,471 375,471 375,471 C 375,471 374,471 374,471 C 374,471 374,471 374,471 C 374,471 374,471 374,471 C 374,471 374,471 374,471 C 374,471 374,471 374,471 C 374,471 374,471 374,471 C 374,471 374,471 374,471 C 374,471 374,471 374,471 C 374,471 374,471 374,471 C 374,471 374,471 374,471 C 374,471 374,471 374,471 C 374,471 374,471 374,471 C 374,471 374,471 374,471 C 374,471 374,471 374,471 C 374,471 374,471 374,471 C 374,470 374,470 374,470 C 374,470 373,470 373,470 C 373,470 373,470 373,470 C 373,470 373,470 373,470 C 373,470 373,470 373,470 C 373,470 373,470 373,470 C 373,470 373,470 373,470 C 373,470 373,470 373,470 C 373,469 373,469 373,469 C 373,469 373,469 373,469 C 373,469 373,469 373,469 C 372,469 372,469 372,469 C 372,469 372,469 372,469 C 372,469 372,469 372,469 C 372,469 372,469 372,468 C 372,468 372,468 372,468 C 372,468 372,468 372,468 C 372,468 372,468 372,468 C 372,468 372,468 372,468 C 372,468 372,468 372,468 C 371,468 371,468 371,468 C 371,468 371,468 371,468 C 371,468 371,468 371,468 C 371,468 371,468 371,468 C 371,468 371,468 371,468 C 371,468 371,467 371,467 C 371,467 371,467 371,467 C 371,467 371,467 371,467 C 371,467 371,467 371,467 C 371,467 371,467 371,467 C 371,467 371,467 371,467 C 371,467 371,467 371,467 C 371,467 371,467 371,467 C 371,467 371,467 371,467 C 371,467 371,467 371,467 C 371,467 371,467 371,467 C 370,467 370,466 370,466 C 370,466 370,466 370,466 C 370,466 370,466 370,466 C 370,466 370,466 370,466 C 370,466 370,466 370,466 C 392,443 399,413 411,391 C 415,384 421,381 428,381 z M 275,386 C 301,387 325,389 336,398 C 351,409 352,439 367,462 C 353,477 339,491 324,505 C 310,518 291,527 271,527 C 260,526 246,527 239,518 C 232,504 239,489 243,476 C 261,492 308,495 312,434 C 302,445 267,460 242,437 C 252,420 264,403 275,386 z M 512,454 C 531,472 539,499 540,532 C 541,568 537,575 499,617 C 480,609 460,601 448,599 C 448,588 448,573 451,552 C 454,526 462,505 470,491 C 486,514 497,546 483,586 C 510,555 518,535 492,469 C 499,462 506,457 512,454 z M 295,539 C 310,557 316,581 317,599 C 302,592 286,584 270,580 L 271,543 C 279,543 287,542 295,539 z M 436,541 L 428,604 C 416,609 396,614 377,618 C 370,618 362,617 355,617 C 346,615 339,610 331,606 C 334,581 342,561 351,545 L 436,541 z M 257,594 L 259,594 C 283,599 305,611 327,622 C 328,623 328,623 329,623 C 329,623 329,623 329,623 C 329,623 329,623 329,623 C 335,626 341,629 347,632 C 347,632 347,632 347,632 C 347,643 345,662 341,682 C 336,704 328,726 323,737 C 309,739 295,744 281,748 C 269,749 258,755 246,753 C 231,745 223,727 215,712 C 211,699 200,689 200,675 C 204,664 216,662 225,659 C 232,659 236,648 228,645 C 202,643 175,646 148,645 C 140,643 128,647 122,639 C 120,627 130,617 140,612 C 178,603 218,597 257,594 z M 412,619 C 413,619 415,619 416,619 C 415,619 413,619 412,619 z M 449,620 C 449,620 450,620 450,620 C 450,620 449,620 449,620 C 449,620 449,620 449,620 z M 329,623 C 329,623 329,623 329,623 C 329,623 329,623 329,623 C 329,623 329,623 329,623 C 329,623 329,623 329,623 z M 360,633 C 395,635 430,635 464,637 C 468,659 468,682 468,705 C 468,733 461,764 438,781 C 404,769 371,755 337,741 C 342,731 350,711 355,688 C 360,666 360,645 360,633 z M 505,718 C 505,718 505,718 505,718 C 505,718 505,718 506,718 C 508,718 510,719 512,719 C 521,723 525,736 520,749 C 515,761 503,768 494,764 C 484,760 481,747 485,735 C 489,725 497,719 505,718 z M 212,739 C 212,739 212,740 212,740 C 212,740 212,739 212,739 z M 480,740 C 480,740 480,741 480,741 C 480,741 480,740 480,740 z M 213,741 C 213,741 213,741 213,742 C 213,742 213,741 213,741 z M 480,741 C 480,742 480,742 480,742 C 480,742 480,742 480,741 z M 215,744 C 215,744 215,744 215,744 C 215,744 215,744 215,744 z M 219,750 C 219,750 219,750 220,750 C 219,750 219,750 219,750 z M 323,753 C 323,753 322,753 322,753 C 321,754 320,754 320,754 C 320,754 321,754 322,753 C 322,753 323,753 323,753 z M 222,753 C 222,753 222,754 222,754 C 222,754 222,753 222,753 z M 224,755 C 224,755 224,756 224,756 C 224,756 224,755 224,755 z M 314,756 C 313,756 312,756 312,756 C 312,756 313,756 314,756 z M 224,756 C 224,756 224,756 225,757 C 224,756 224,756 224,756 z M 309,757 C 308,757 307,757 307,757 C 307,757 308,757 309,757 z M 300,759 C 299,759 299,759 298,760 C 299,759 299,759 300,759 z M 474,759 C 474,760 474,760 473,760 C 474,760 474,759 474,759 z M 229,761 C 229,761 229,761 229,761 C 229,761 229,761 229,761 z M 230,762 C 230,762 230,762 230,762 C 230,762 230,762 230,762 z M 230,762 C 230,762 230,762 230,762 C 230,762 230,762 230,762 z M 232,763 C 232,763 232,763 232,763 C 232,764 232,764 232,764 C 232,764 232,764 232,763 C 232,763 232,763 232,763 z M 232,764 C 232,764 232,764 233,764 C 233,764 233,764 233,764 C 233,764 233,764 233,764 C 232,764 232,764 232,764 z M 280,764 C 279,764 278,764 277,765 C 278,764 279,764 280,764 z M 234,765 C 234,765 234,765 234,765 C 234,765 234,765 234,765 z M 275,765 C 274,765 274,765 273,765 C 274,765 274,765 275,765 z M 236,766 C 236,766 236,766 236,766 C 236,766 236,766 236,766 z M 270,766 C 270,766 269,766 268,766 C 269,766 270,766 270,766 z M 237,766 C 237,766 237,766 237,766 C 237,766 237,766 237,766 z M 238,767 C 238,767 238,767 238,767 C 238,767 238,767 238,767 z M 238,767 C 238,767 238,767 239,767 C 238,767 238,767 238,767 z M 265,767 C 265,767 264,767 263,767 C 264,767 265,767 265,767 z M 239,767 C 240,767 240,767 240,767 C 240,767 240,767 239,767 z M 241,768 C 241,768 241,768 241,768 C 241,768 241,768 241,768 z M 260,768 C 260,768 260,768 260,768 C 260,768 260,768 260,768 z M 242,768 C 243,768 243,768 243,768 C 243,768 243,768 242,768 z M 244,769 C 244,769 244,769 244,769 C 244,769 244,769 244,769 z M 258,769 C 257,769 257,769 257,769 C 257,769 257,769 258,769 z M 245,769 C 245,769 245,769 246,769 C 245,769 245,769 245,769 z M 256,769 C 256,769 256,769 256,769 C 256,769 256,769 256,769 C 256,769 256,769 256,769 z M 246,769 C 246,769 246,769 246,769 C 246,769 246,769 246,769 z M 255,769 C 256,769 256,769 256,769 C 256,769 255,769 255,769 C 255,769 255,769 255,769 z M 247,769 C 247,769 247,769 247,769 C 247,769 247,769 247,769 z M 255,769 C 255,769 255,769 255,769 C 255,769 255,769 255,769 C 255,769 255,769 255,769 z M 254,769 C 254,769 254,769 255,769 C 254,769 254,769 254,769 C 254,769 254,769 254,769 C 254,769 254,769 254,769 C 254,769 254,769 254,769 z M 249,770 C 249,770 249,770 249,770 C 249,770 249,770 249,770 z M 249,770 C 249,770 249,770 250,770 C 249,770 249,770 249,770 z M 253,770 C 253,770 253,770 253,770 C 253,770 253,770 252,770 C 253,770 253,770 253,770 z M 250,770 C 250,770 250,770 250,770 C 250,770 250,770 250,770 z M 252,770 C 252,770 252,770 252,770 C 252,770 252,770 252,770 C 252,770 252,770 252,770 z M 467,772 C 467,772 467,772 467,772 C 467,772 467,772 467,772 z M 461,780 C 461,781 461,781 461,781 C 461,781 461,781 461,780 z M 460,782 C 460,782 460,782 460,782 C 460,782 460,782 460,782 z" style="opacity:1;fill:#000000;fill-opacity:1;fill-rule:evenodd;stroke:none;stroke-width:1px;stroke-linecap:butt;stroke-linejoin:miter;stroke-opacity:1"/>
</svg>